<?xml version="1.0" encoding="UTF-8"?>
<svg id="Layer_2" data-name="Layer 2" xmlns="http://www.w3.org/2000/svg" viewBox="0 0 1054.13 297.16">
  <defs>
    <style>
      .cls-1 {
        fill: #fff;
      }
    </style>
  </defs>
  <g id="R">
    <path class="cls-1" d="M173.78,292.52h0c-5.66,0-10.89-3.04-13.68-7.97l-54.9-96.82c-2.55-4.5-7.32-7.27-12.48-7.27h-47.45c-7.93,0-14.35,6.43-14.35,14.35v97.71s-30.91,0-30.91,0V34.3C11.58,22.72,18.08,16.22,29.66,4.64h69.26c18.8,0,35.29,3.67,49.46,11.01,14.16,7.34,25.17,17.65,33.04,30.91,7.86,13.27,11.79,28.66,11.79,46.18,0,20.35-5.35,37.74-16.03,52.16-7.78,10.5-17.58,18.75-29.38,24.75-7.33,3.72-10.05,12.81-5.96,19.94l45.58,79.37c6.02,10.48-1.55,23.55-13.64,23.55ZM100.47,151.48c12.36,0,23.18-2.38,32.46-7.15,9.27-4.76,16.48-11.59,21.64-20.48,5.15-8.89,7.73-19.39,7.73-31.5s-2.58-22.54-7.73-31.3c-5.16-8.75-12.37-15.52-21.64-20.29-9.27-4.76-20.09-7.15-32.46-7.15h-55.2c-7.93,0-14.35,6.43-14.35,14.35v89.15c0,7.93,6.43,14.35,14.35,14.35h55.2Z"/>
  </g>
  <g id="O">
    <path class="cls-1" d="M491.24,148.39c0,21.64-3.74,41.54-11.21,59.7-7.48,18.17-17.77,33.88-30.91,47.15-13.14,13.27-28.4,23.56-45.79,30.91-17.39,7.34-36.13,11.01-56.22,11.01s-38.84-3.67-56.23-11.01c-17.39-7.35-32.65-17.64-45.79-30.91-13.14-13.27-23.45-28.98-30.91-47.15-7.47-18.16-11.21-38.06-11.21-59.7s3.73-41.54,11.21-59.7c7.47-18.16,17.77-33.87,30.91-47.14,13.14-13.27,28.4-23.5,45.79-30.72,17.39-7.21,36.13-10.82,56.23-10.82s38.83,3.67,56.22,11.01c17.39,7.34,32.65,17.65,45.79,30.91,13.14,13.28,23.44,28.92,30.91,46.95,7.47,18.04,11.21,37.87,11.21,59.51ZM460.33,148.39c0-16.23-2.77-31.55-8.31-45.98-5.54-14.43-13.33-27.18-23.38-38.26-10.04-11.07-21.96-19.71-35.74-25.89-13.78-6.18-29.04-9.27-45.79-9.27s-32.02,3.09-45.8,9.27c-13.79,6.19-25.7,14.82-35.74,25.89-10.05,11.08-17.84,23.83-23.38,38.26-5.54,14.43-8.31,29.75-8.31,45.98s2.77,31.95,8.31,46.37c5.54,14.43,13.33,27.18,23.38,38.26,10.05,11.08,22.03,19.71,35.94,25.89,13.91,6.18,29.11,9.27,45.6,9.27s32-3.09,45.79-9.27c13.78-6.18,25.7-14.81,35.74-25.89,10.05-11.08,17.84-23.83,23.38-38.26,5.54-14.42,8.31-29.88,8.31-46.37Z"/>
  </g>
  <g id="K">
    <path class="cls-1" d="M544.13,112.74V4.65h-31v288h31v-138.01c.42.56.87,1.11,1.38,1.62,2.93,2.93,6.77,4.39,10.61,4.39s7.68-1.46,10.61-4.39l126.02-125.99c5.86-5.86,5.86-15.35,0-21.21-5.86-5.86-15.35-5.86-21.21,0l-110.5,110.69c-6.23,6.24-16.9,1.83-16.9-6.99Z"/>
  </g>
  <g id="K_Line_2" data-name="K Line 2">
    <path class="cls-1" d="M691.13,292.65c-3.84,0-7.68-1.46-10.61-4.39l-90.01-89.99c-5.86-5.86-5.86-15.35,0-21.21,5.86-5.86,15.35-5.86,21.21,0l90.01,89.99c5.86,5.86,5.86,15.35,0,21.21-2.93,2.93-6.77,4.39-10.61,4.39Z"/>
  </g>
  <g id="K_Line_1" data-name="K Line 1">
    <path class="cls-1" d="M676.12,160.65c-3.84,0-7.68-1.46-10.61-4.39-5.86-5.86-5.86-15.36,0-21.21l126.02-125.99c5.86-5.86,15.36-5.86,21.21,0,5.86,5.86,5.86,15.36,0,21.21l-126.02,125.99c-2.93,2.93-6.77,4.39-10.61,4.39Z"/>
  </g>
  <g id="A">
    <path class="cls-1" d="M1053.22,271.68L954.1,4.64h-33.23l-90.4,248.58c-2.18,6-9.85,7.7-14.37,3.19l-79.38-79.36c-5.86-5.86-15.36-5.86-21.21,0-5.86,5.86-5.86,15.36,0,21.21l90.01,89.99c2.93,2.93,6.77,4.39,10.61,4.39l32.09-.12,21.71-60.8c2.04-5.71,7.45-9.53,13.52-9.53h108.4c6.09,0,11.52,3.85,13.54,9.59l19.39,50.08c3.69,10.49,17.08,13.53,24.94,5.66h0c4.15-4.15,5.51-10.34,3.5-15.85ZM970.86,193.21h-67.14c-9.91,0-16.84-9.81-13.52-19.16l35.65-100.38c3.88-10.93,19.34-10.91,23.2.02l35.4,100.33c3.3,9.36-3.64,19.18-13.57,19.18Z"/>
  </g>
</svg>